<?xml version="1.0" standalone="no"?>
<!DOCTYPE svg PUBLIC "-//W3C//DTD SVG 20010904//EN"
 "http://www.w3.org/TR/2001/REC-SVG-20010904/DTD/svg10.dtd">
<svg version="1.0" xmlns="http://www.w3.org/2000/svg"
 width="1436.000000pt" height="1450.000000pt" viewBox="0 0 1436.000000 1450.000000"
 preserveAspectRatio="xMidYMid meet">

<g transform="translate(0.000000,1450.000000) scale(0.100000,-0.100000)"
fill="#4f46e5" stroke="none">
<path d="M3245 14038 c-33 -5 -89 -13 -125 -18 -122 -18 -175 -28 -230 -45
-30 -10 -72 -20 -93 -22 -20 -3 -40 -9 -43 -14 -3 -5 -18 -9 -33 -9 -15 0 -31
-4 -37 -9 -5 -4 -34 -16 -64 -27 -30 -10 -59 -22 -64 -26 -6 -4 -17 -8 -25 -8
-9 0 -41 -12 -71 -26 -30 -15 -66 -31 -80 -36 -14 -6 -32 -14 -40 -19 -8 -4
-40 -20 -70 -36 -30 -15 -97 -53 -148 -85 -51 -32 -95 -58 -98 -58 -3 0 -31
-19 -62 -43 -32 -23 -68 -50 -82 -59 -14 -9 -34 -24 -45 -34 -11 -11 -49 -43
-85 -73 -102 -85 -186 -169 -263 -261 -39 -47 -74 -87 -77 -90 -4 -3 -23 -27
-44 -55 -20 -27 -54 -72 -74 -99 -35 -47 -81 -123 -118 -193 -9 -18 -20 -33
-25 -33 -5 0 -9 -9 -9 -19 0 -11 -4 -22 -9 -26 -6 -3 -22 -31 -37 -63 -14 -31
-37 -79 -50 -105 -13 -27 -24 -54 -24 -61 0 -7 -11 -36 -25 -64 -14 -29 -25
-58 -25 -66 0 -8 -5 -18 -10 -21 -6 -3 -10 -17 -10 -30 0 -13 -4 -27 -10 -30
-5 -3 -10 -17 -10 -31 0 -14 -5 -35 -12 -47 -6 -12 -15 -40 -20 -62 -5 -22
-14 -60 -19 -85 -5 -25 -14 -74 -19 -110 -6 -36 -13 -72 -16 -80 -24 -55 -27
-473 -30 -4927 l-4 -4733 5337 -2 c3600 -2 5337 -6 5340 -13 2 -6 -8 -17 -22
-26 -38 -23 -810 -796 -826 -827 -8 -15 -16 -29 -19 -32 -9 -9 -32 -75 -37
-105 -2 -16 -9 -39 -14 -51 -12 -24 -7 -173 8 -225 44 -157 184 -310 343 -377
84 -35 144 -44 246 -40 60 3 110 10 116 16 7 7 20 12 31 12 62 0 199 101 397
293 69 67 159 153 200 191 41 38 179 169 305 291 127 121 264 252 305 290 41
39 171 165 290 281 118 116 238 230 265 254 28 24 139 132 248 239 186 184
257 265 257 295 0 6 4 16 9 21 32 32 46 216 25 320 -6 28 -26 81 -44 118 -34
68 -107 145 -345 366 -44 41 -172 162 -285 270 -113 108 -230 219 -260 246
-30 28 -125 118 -210 202 -85 83 -175 168 -200 188 -25 21 -122 112 -215 204
-94 91 -214 205 -265 252 -52 48 -146 137 -209 198 -63 61 -133 121 -155 133
-82 43 -99 51 -135 61 -41 12 -256 14 -314 2 -21 -4 -60 -19 -85 -33 -26 -14
-60 -32 -75 -39 -38 -20 -151 -135 -172 -175 -67 -128 -75 -153 -82 -267 -8
-119 31 -239 113 -356 42 -59 573 -586 707 -701 37 -32 67 -61 67 -66 0 -8
-9203 -12 -9211 -4 -2 2 -3 520 -1 1150 l2 1146 3838 4 c2639 2 3862 7 3917
14 156 21 254 41 313 63 13 5 36 9 52 9 16 0 32 4 35 10 3 5 17 10 30 10 13 0
36 6 52 14 34 17 64 29 118 46 22 7 62 23 89 36 28 13 53 24 58 24 5 0 26 11
48 25 22 14 46 25 55 25 8 0 15 5 15 10 0 6 7 10 15 10 14 0 62 27 141 78 10
6 34 20 52 29 17 9 32 20 32 25 0 4 5 8 11 8 12 0 190 126 229 162 14 13 54
46 90 75 110 87 440 438 440 467 0 3 32 50 70 105 39 55 70 103 70 106 0 3 12
24 26 47 40 62 114 213 114 230 0 9 7 21 15 28 8 7 15 21 15 31 0 10 5 21 10
24 6 3 10 15 10 26 0 19 3 27 34 86 9 17 16 43 16 56 0 14 5 29 10 32 6 3 10
16 10 27 0 21 5 42 32 126 23 72 41 207 57 417 13 171 13 3106 0 3280 -18 234
-21 260 -30 270 -5 5 -9 27 -9 50 -1 22 -7 51 -15 65 -8 14 -14 39 -15 57 0
17 -4 35 -10 38 -5 3 -10 21 -10 40 0 19 -4 36 -9 39 -5 3 -11 18 -14 33 -5
31 -25 87 -58 171 -47 115 -88 197 -182 362 -8 14 -21 36 -28 50 -34 62 -191
274 -270 365 -134 155 -356 354 -470 421 -11 6 -27 17 -36 26 -62 52 -433 257
-467 258 -6 0 -33 12 -61 25 -27 14 -58 25 -67 25 -9 0 -20 5 -23 10 -3 6 -17
10 -30 10 -13 0 -27 5 -30 10 -3 6 -13 10 -22 10 -8 0 -29 6 -46 13 -49 21
-102 37 -122 37 -18 0 -43 6 -122 32 -21 7 -65 16 -98 20 -33 5 -89 13 -125
18 -36 6 -110 14 -165 19 -130 13 -6497 12 -6580 -1z m6545 -1415 c25 -6 59
-16 75 -21 17 -6 50 -16 75 -23 45 -12 63 -19 155 -59 106 -47 114 -51 185
-100 91 -62 160 -118 226 -184 70 -70 174 -196 174 -212 0 -4 7 -16 17 -26 20
-23 27 -35 82 -145 51 -102 55 -110 77 -183 9 -30 21 -59 25 -65 5 -5 9 -26 9
-46 0 -21 4 -40 9 -43 4 -3 12 -36 17 -73 13 -104 9 -2964 -4 -3043 -20 -124
-38 -192 -63 -242 -5 -10 -9 -25 -9 -33 0 -14 -7 -30 -31 -75 -9 -15 -32 -65
-52 -110 -6 -14 -30 -50 -52 -80 -22 -30 -47 -66 -56 -80 -44 -68 -263 -269
-353 -324 -67 -41 -221 -116 -237 -116 -10 0 -20 -4 -23 -9 -3 -5 -18 -11 -33
-14 -16 -3 -53 -13 -83 -22 -30 -10 -82 -22 -115 -28 -41 -7 -1265 -11 -3813
-14 l-3752 -3 3 2082 c3 1467 7 2098 15 2133 6 28 18 79 27 115 9 36 19 77 22
93 3 15 9 30 14 33 5 3 9 12 9 20 0 20 66 157 107 222 18 29 33 56 33 60 0 4
11 19 25 34 14 15 25 32 25 38 0 13 255 270 269 270 5 0 16 6 23 13 7 8 34 26
58 42 25 15 47 31 50 34 10 12 119 69 190 99 19 8 43 19 52 23 10 5 27 9 38 9
11 0 28 4 38 9 33 17 117 41 142 41 14 0 32 5 40 10 22 14 6310 7 6370 -7z"/>
</g>
</svg>
